<svg xmlns="http://www.w3.org/2000/svg" version="1.1" xmlns:xlink="http://www.w3.org/1999/xlink" xmlns:svgjs="http://svgjs.dev/svgjs" width="2000" height="348" viewBox="0 0 2000 348"><g transform="matrix(1,0,0,1,-1.2121212121213603,0.2480340818979414)"><svg viewBox="0 0 396 69" data-background-color="#fafafa" preserveAspectRatio="xMidYMid meet" height="348" width="2000" xmlns="http://www.w3.org/2000/svg" xmlns:xlink="http://www.w3.org/1999/xlink"><g id="tight-bounds" transform="matrix(1,0,0,1,0.24000000000003752,-0.04917917141079897)"><svg viewBox="0 0 395.5199999999999 69.09835834282163" height="69.09835834282163" width="395.5199999999999"><g><svg viewBox="0 0 513.0675300021875 89.6342132942899" height="69.09835834282163" width="395.5199999999999"><g><rect width="5.848991213738916" height="77.82999707174231" x="410.83149532392383" y="5.902108111273797" fill="#000000" opacity="1" stroke-width="0" stroke="transparent" fill-opacity="1" class="rect-qz-0" data-fill-palette-color="primary" rx="1%" id="qz-0" data-palette-color="#000000"></rect></g><g transform="matrix(1,0,0,1,0,12.387941200585658)"><svg viewBox="0 0 395.52 64.85833089311859" height="64.85833089311859" width="395.52"><g id="textblocktransform"><svg viewBox="0 0 395.52 64.85833089311859" height="64.85833089311859" width="395.52" id="textblock"><g><svg viewBox="0 0 395.52 64.85833089311859" height="64.85833089311859" width="395.52"><g transform="matrix(1,0,0,1,0,0)"><svg width="395.52" viewBox="2.25 -38.4 239.02 39.199999999999996" height="64.85833089311859" data-palette-color="#000000"><path d="M2.25-1.1L2.25-1.1 2.25-37.6Q7.3-38.4 11.15-38.4L11.15-38.4Q17.95-38.4 20.63-35.55 23.3-32.7 23.3-26.6L23.3-26.6Q23.3-19.4 19.7-16.75L19.7-16.75Q17.35-15.05 15.1-14.65L15.1-14.65Q12.2-14.2 8.5-14.2L8.5-14.2 8.5-1.15Q8.5-0.2 8.4 0.1L8.4 0.1Q8.25 0.8 6.5 0.8L6.5 0.8Q2.25 0.8 2.25-1.1ZM8.68-21.18Q8.85-21.1 8.97-21.08 9.1-21.05 10.13-21.05 11.15-21.05 12-21.1 12.85-21.15 13.83-21.43 14.8-21.7 15.2-22.3L15.2-22.3Q16.1-23.8 16.1-26.45 16.1-29.1 15.3-30.78 14.5-32.45 13.6-32.45L13.6-32.45Q10-32.45 9.25-32.3 8.5-32.15 8.5-31.3L8.5-31.3 8.5-21.8Q8.5-21.25 8.68-21.18ZM30.95-24.7L31.95-22.8Q36.05-25.6 37.37-25.6 38.7-25.6 39.77-25.1 40.85-24.6 41.35-24.1L41.35-24.1 41.8-23.65Q41.05-20.45 40.65-19.65 40.25-18.85 39.57-18.85 38.9-18.85 37.85-19.4 36.8-19.95 35.95-19.95 35.1-19.95 32.55-18.4L32.55-18.4 32.55 0Q32.55 0.3 32.45 0.4L32.45 0.4Q32.25 0.8 30.6 0.8 28.95 0.8 27.52 0.55 26.1 0.3 26.1 0L26.1 0 26.1-24.8Q26.1-25.6 28.35-25.6 30.6-25.6 30.95-24.8L30.95-24.8 30.95-24.7ZM44.6 0L44.6 0 44.6-24.8Q44.6-25.6 46.4-25.6 48.2-25.6 49.8-25.35 51.4-25.1 51.4-24.8L51.4-24.8 51.4 0Q51.4 0.3 51.35 0.4L51.35 0.4Q51.1 0.8 49.45 0.8 47.8 0.8 46.2 0.55 44.6 0.3 44.6 0ZM47.7-31.2Q44.1-31.2 44.1-34.8 44.1-38.4 47.7-38.4 51.3-38.4 51.3-34.8 51.3-31.2 47.7-31.2ZM72.09-23.9L72.14-23.9Q72.49-23.7 72.49-22.98 72.49-22.25 72.14-21.05L72.14-21.05Q71.49-18.85 70.74-19.2L70.74-19.2 70.69-19.2 68.94-19.9Q67.49-20.55 65.42-20.55 63.34-20.55 62.77-18.85 62.19-17.15 62.19-12.3 62.19-7.45 62.92-5.78 63.64-4.1 65.69-4.1L65.69-4.1Q68.64-4.1 70.29-4.45 71.94-4.8 71.99-4.8L71.99-4.8Q72.34-4.9 72.57-4.4 72.79-3.9 72.79-2.05 72.79-0.2 71.99 0L71.99 0Q68.89 0.8 65.89 0.8L65.89 0.8Q59.84 0.8 57.62-2.08 55.39-4.95 55.39-12.5L55.39-12.5Q55.39-17.95 56.37-20.73 57.34-23.5 59.49-24.55 61.64-25.6 65.74-25.6 69.84-25.6 72.09-23.9L72.09-23.9ZM85.49 0.8L85.49 0.8Q80.14 0.8 78.07-2.1 75.99-5 75.99-12.5L75.99-12.5Q75.99-17.9 76.94-20.73 77.89-23.55 79.82-24.58 81.74-25.6 85.49-25.6 89.24-25.6 91.17-24.55 93.09-23.5 93.99-20.65 94.89-17.8 94.89-12.55L94.89-12.55Q94.89-12.25 94.89-11.95 94.89-11.65 93.72-11.4 92.54-11.15 90.89-11.15L90.89-11.15 83.19-11.15Q83.29-5.3 84.04-4.5L84.04-4.5Q84.49-4.1 85.49-4.1L85.49-4.1Q92.04-4.1 94.44-4.75L94.44-4.75Q94.54-4.8 94.59-4.8L94.59-4.8Q94.94-4.9 95.17-4.4 95.39-3.9 95.39-2.05 95.39-0.2 94.59 0L94.59 0Q92.54 0.8 85.49 0.8ZM83.19-19.05L83.19-19.05 83.19-15.15 88.24-15.15Q88.04-20.95 87.09-20.95L87.09-20.95Q85.39-20.95 84.29-20.45 83.19-19.95 83.19-19.05ZM101.44-1.05L101.44-1.05 101.44-31.6 95.19-31.6Q93.99-31.65 93.64-32.25L93.64-32.25Q93.19-32.95 93.19-34.75L93.19-34.75Q93.19-37.6 94.89-37.6L94.89-37.6 113.09-37.6Q115.99-37.6 115.99-36.05L115.99-36.05Q115.99-31.6 113.59-31.6L113.59-31.6 107.99-31.65 108.44-21.5 108.49-1.15Q108.49-0.2 108.44 0.1L108.44 0.1Q108.24 0.8 106.49 0.8L106.49 0.8Q101.44 0.8 101.44-1.05ZM123.44-24.7L124.44-22.8Q128.54-25.6 129.86-25.6 131.19-25.6 132.26-25.1 133.34-24.6 133.84-24.1L133.84-24.1 134.29-23.65Q133.54-20.45 133.14-19.65 132.74-18.85 132.06-18.85 131.39-18.85 130.34-19.4 129.29-19.95 128.44-19.95 127.59-19.95 125.04-18.4L125.04-18.4 125.04 0Q125.04 0.3 124.94 0.4L124.94 0.4Q124.74 0.8 123.09 0.8 121.44 0.8 120.01 0.55 118.59 0.3 118.59 0L118.59 0 118.59-24.8Q118.59-25.6 120.84-25.6 123.09-25.6 123.44-24.8L123.44-24.8 123.44-24.7ZM148.53 0L147.73-1.55Q145.13 0.8 143.11 0.8 141.08 0.8 139.83 0.53 138.58 0.25 137.58-0.68 136.58-1.6 136.18-3.35 135.78-5.1 135.78-8L135.78-8Q135.78-12.05 139.73-13.55L139.73-13.55 146.88-15.4Q146.83-18.65 146.23-19.6 145.63-20.55 143.63-20.55 141.63-20.55 140.18-19.9L140.18-19.9 138.43-19.2 138.38-19.2Q137.93-18.95 137.58-19.6L137.58-19.6Q136.68-21.5 136.68-22.58 136.68-23.65 136.86-23.78 137.03-23.9 137.03-23.95L137.03-23.95Q139.53-25.6 143.51-25.6 147.48-25.6 149.63-24.55 151.78-23.5 152.76-20.73 153.73-17.95 153.73-12.5L153.73-12.5 153.63 0Q153.63 0.3 153.53 0.4L153.53 0.4Q153.33 0.8 151.63 0.8L151.63 0.8Q148.53 0.8 148.53 0L148.53 0ZM141.33-7.9L141.33-7.9Q141.33-4.3 143.43-4.1L143.43-4.1Q144.88-4.1 145.53-4.6L145.53-4.6Q146.93-5.55 146.93-11.7L146.93-11.7Q144.33-11.35 142.83-10.28 141.33-9.2 141.33-7.9ZM174.28-23.9L174.33-23.9Q174.68-23.7 174.68-22.98 174.68-22.25 174.33-21.05L174.33-21.05Q173.68-18.85 172.93-19.2L172.93-19.2 172.88-19.2 171.13-19.9Q169.68-20.55 167.61-20.55 165.53-20.55 164.96-18.85 164.38-17.15 164.38-12.3 164.38-7.45 165.11-5.78 165.83-4.1 167.88-4.1L167.88-4.1Q170.83-4.1 172.48-4.45 174.13-4.8 174.18-4.8L174.18-4.8Q174.53-4.9 174.76-4.4 174.98-3.9 174.98-2.05 174.98-0.2 174.18 0L174.18 0Q171.08 0.8 168.08 0.8L168.08 0.8Q162.03 0.8 159.81-2.08 157.58-4.95 157.58-12.5L157.58-12.5Q157.58-17.95 158.56-20.73 159.53-23.5 161.68-24.55 163.83-25.6 167.93-25.6 172.03-25.6 174.28-23.9L174.28-23.9ZM185.38-21.55L185.38 0Q185.38 0.3 185.33 0.4L185.33 0.4Q185.08 0.8 183.43 0.8 181.78 0.8 180.18 0.55 178.58 0.3 178.58 0L178.58 0 178.58-37.6Q178.58-38.4 180.33-38.4 182.08-38.4 183.23-38.18 184.38-37.95 184.43-37.6L184.43-37.6 185.38-21.55ZM200.33 0.25L200.33 0.25Q200.33 0.8 198.48 0.8 196.63 0.8 194.88 0.55 193.13 0.3 192.98 0L192.98 0 192.93-0.05 186.43-13.6 186.43-15.2 191.73-24.75Q191.78-24.75 191.78-24.8L191.78-24.8Q192.23-25.6 193.78-25.6L193.78-25.6Q197.33-25.6 198.33-25L198.33-25Q198.53-24.9 198.48-24.8L198.48-24.8 192.83-15.2 200.28 0Q200.33 0.15 200.33 0.25ZM211.98 0.8L211.98 0.8Q206.63 0.8 204.55-2.1 202.48-5 202.48-12.5L202.48-12.5Q202.48-17.9 203.43-20.73 204.38-23.55 206.3-24.58 208.23-25.6 211.98-25.6 215.73-25.6 217.65-24.55 219.58-23.5 220.48-20.65 221.38-17.8 221.38-12.55L221.38-12.55Q221.38-12.25 221.38-11.95 221.38-11.65 220.2-11.4 219.03-11.15 217.38-11.15L217.38-11.15 209.68-11.15Q209.78-5.3 210.53-4.5L210.53-4.5Q210.98-4.1 211.98-4.1L211.98-4.1Q218.53-4.1 220.93-4.75L220.93-4.75Q221.03-4.8 221.08-4.8L221.08-4.8Q221.43-4.9 221.65-4.4 221.88-3.9 221.88-2.05 221.88-0.2 221.08 0L221.08 0Q219.03 0.8 211.98 0.8ZM209.68-19.05L209.68-19.05 209.68-15.15 214.73-15.15Q214.53-20.95 213.58-20.95L213.58-20.95Q211.88-20.95 210.78-20.45 209.68-19.95 209.68-19.05ZM230.42-24.7L231.42-22.8Q235.52-25.6 236.85-25.6 238.17-25.6 239.25-25.1 240.32-24.6 240.82-24.1L240.82-24.1 241.27-23.65Q240.52-20.45 240.12-19.65 239.72-18.85 239.05-18.85 238.37-18.85 237.32-19.4 236.27-19.95 235.42-19.95 234.57-19.95 232.02-18.4L232.02-18.4 232.02 0Q232.02 0.3 231.92 0.4L231.92 0.4Q231.72 0.8 230.07 0.8 228.42 0.8 227 0.55 225.57 0.3 225.57 0L225.57 0 225.57-24.8Q225.57-25.6 227.82-25.6 230.07-25.6 230.42-24.8L230.42-24.8 230.42-24.7Z" opacity="1" transform="matrix(1,0,0,1,0,0)" fill="#000000" class="wordmark-text-0" data-fill-palette-color="primary" id="text-0"></path></svg></g></svg></g></svg></g></svg></g><g transform="matrix(1,0,0,1,431.9919818615866,0)"><svg viewBox="0 0 81.07554814060086 89.6342132942899" height="89.6342132942899" width="81.07554814060086"><g><svg xmlns="http://www.w3.org/2000/svg" xmlns:xlink="http://www.w3.org/1999/xlink" xmlns:a="http://ns.adobe.com/AdobeSVGViewerExtensions/3.0/" version="1.1" x="0" y="0" viewBox="0.00027837144060710584 0 82.47644994475962 91.183" enable-background="new -8.762 -4.408 100 100" xml:space="preserve" height="89.6342132942899" width="81.07554814060086" class="icon-icon-0" data-fill-palette-color="accent" id="icon-0"><path d="M82.065 29.002L76.497 8.583l-0.023-0.077C74.935 3.418 70.372 0 65.12 0c-1.282 0-2.6 0.198-3.914 0.592l-0.117 0.035L38.536 9.484 38.52 9.492c-5.206 2.082-7.698 4.928-9.449 7.437l-0.044 0.063L1.962 60.465c-0.684 1.006-2.598 4.262-1.748 8.082 0.381 1.709 1.481 4.121 4.567 5.914l0.118 0.068 0.124 0.057c10.38 4.789 30.619 14.174 32.927 15.4 1.455 0.773 3.326 1.197 5.27 1.197 0.001 0 0.001 0 0.001 0 4.338 0 8.079-1.959 10.005-5.244l26.988-46.013C81.886 37.283 83.168 32.765 82.065 29.002zM75.286 36.844l-0.03 0.048L48.212 82.999c-1.027 1.75-3.252 2.375-4.991 2.375-0.98 0-1.931-0.195-2.542-0.52-2.955-1.57-30.617-14.344-33.084-15.482-0.966-0.586-1.524-1.27-1.706-2.086-0.266-1.193 0.258-2.656 0.895-3.572l0.041-0.061 27.055-43.458c1.518-2.161 3.265-3.892 6.79-5.304l22.311-8.763c0.736-0.211 1.456-0.316 2.141-0.316 3.068 0 5.109 2.175 5.779 4.342l5.566 20.406 0.018 0.063C77.012 32.401 76.291 35.275 75.286 36.844z" fill="#e43030" data-fill-palette-color="accent"></path><path d="M54.23 31.512l2.328-4.001-6.311-2.436-2.261 3.8c-5.545-1.114-10.932 0.751-14.117 5.6-3.693 5.624-0.261 10.661 2.75 13.508l-5.767 9.691c-1.672-1.246-3.598-2.865-4.382-4.256l-5.48 3.98c0.764 1.697 2.609 4.307 6.032 6.715l-3.159 5.309 6.423 3.244 3.087-5.307c6.764 2.236 13.568 0.586 16.846-5.588 3.088-5.814-1.385-11.873-4.736-15.224l5.708-9.813c1.845 1.451 3.458 3.5 4.104 4.898l5.484-3.267C60.12 37.047 57.501 33.77 54.23 31.512zM39.294 36.429c1.363-1.892 3.444-2.326 5.477-2.146l-4.506 7.573C38.941 40.233 38.041 38.166 39.294 36.429zM43.78 58.559c-1.246 2.203-4.079 2.533-6.549 2.17l4.816-8.277C43.605 54.274 44.822 56.715 43.78 58.559z" fill="#e43030" data-fill-palette-color="accent"></path><path d="M61.977 9.015c-2.346 0-4.712 0.931-6.665 2.622-1.822 1.578-3.057 3.642-3.477 5.81-0.451 2.332 0.074 4.509 1.479 6.131 1.313 1.516 3.244 2.35 5.44 2.35 0.001 0 0 0 0.001 0 2.345 0 4.711-0.931 6.663-2.621 1.822-1.579 3.058-3.643 3.478-5.811 0.451-2.331-0.074-4.509-1.479-6.131C66.104 9.849 64.172 9.015 61.977 9.015zM65.309 16.801c-0.265 1.368-1.075 2.697-2.282 3.742-1.27 1.101-2.826 1.73-4.272 1.73-0.868 0-1.632-0.234-2.216-0.665-0.079-2.12 0.974-4.485 2.995-6.236 1.391-1.204 3.003-1.911 4.555-2.112 0.211 0.142 0.402 0.307 0.567 0.497C65.31 14.513 65.542 15.594 65.309 16.801z" fill="#e43030" data-fill-palette-color="accent"></path></svg></g></svg></g></svg></g><defs></defs></svg><rect width="395.5199999999999" height="69.09835834282163" fill="none" stroke="none" visibility="hidden"></rect></g></svg></g></svg>