<svg xmlns="http://www.w3.org/2000/svg" version="1.1" xmlns:xlink="http://www.w3.org/1999/xlink" xmlns:svgjs="http://svgjs.dev/svgjs" width="2000" height="282" viewBox="0 0 2000 282"><g transform="matrix(1,0,0,1,-1.2121212121212466,0.025353281492783708)"><svg viewBox="0 0 396 56" data-background-color="#fafafa" preserveAspectRatio="xMidYMid meet" height="282" width="2000" xmlns="http://www.w3.org/2000/svg" xmlns:xlink="http://www.w3.org/1999/xlink"><g id="tight-bounds" transform="matrix(1,0,0,1,0.2400000000000091,-0.005034694197149747)"><svg viewBox="0 0 395.52 56.01006938839433" height="56.01006938839433" width="395.52"><g><svg viewBox="0 0 485.72428692938956 68.78400843078344" height="56.01006938839433" width="395.52"><g><rect width="4.488431885227751" height="59.72562237115783" x="407.26982168907784" y="4.529193029812806" fill="#000000" opacity="1" stroke-width="0" stroke="transparent" fill-opacity="1" class="rect-qz-0" data-fill-palette-color="primary" rx="1%" id="qz-0" data-palette-color="#000000"></rect></g><g transform="matrix(1,0,0,1,0,9.506328227409291)"><svg viewBox="0 0 395.52 49.77135197596486" height="49.77135197596486" width="395.52"><g id="textblocktransform"><svg viewBox="0 0 395.52 49.77135197596486" height="49.77135197596486" width="395.52" id="textblock"><g><svg viewBox="0 0 395.52 49.77135197596486" height="49.77135197596486" width="395.52"><g transform="matrix(1,0,0,1,0,0)"><svg width="395.52" viewBox="3.59 -38.12 307.28000000000003 38.669999999999995" height="49.77135197596486" data-palette-color="#000000"><path d="M10.17 0L3.59 0 3.59-36.36 17.22-36.36Q21.41-36.36 24.26-34.8 27.11-33.24 28.58-30.51 30.04-27.79 30.04-24.33L30.04-24.33Q30.04-20.83 28.57-18.11 27.1-15.39 24.22-13.84 21.34-12.29 17.13-12.29L17.13-12.29 8.1-12.29 8.1-17.7 16.25-17.7Q18.7-17.7 20.26-18.55 21.82-19.41 22.58-20.9 23.33-22.39 23.33-24.33L23.33-24.33Q23.33-26.26 22.58-27.73 21.82-29.21 20.25-30.03 18.68-30.86 16.21-30.86L16.21-30.86 10.17-30.86 10.17 0ZM41.9 0L35.47 0 35.47-27.27 41.71-27.27 41.71-22.73 41.99-22.73Q42.74-25.09 44.56-26.38 46.38-27.66 48.72-27.66L48.72-27.66Q49.25-27.66 49.92-27.62 50.58-27.57 51.03-27.49L51.03-27.49 51.03-21.57Q50.62-21.72 49.74-21.83 48.86-21.95 48.04-21.95L48.04-21.95Q46.29-21.95 44.89-21.19 43.5-20.44 42.7-19.11 41.9-17.77 41.9-16.03L41.9-16.03 41.9 0ZM61.73 0L55.3 0 55.3-27.27 61.73-27.27 61.73 0ZM58.54-31.14L58.54-31.14Q57.01-31.14 55.91-32.16 54.81-33.19 54.81-34.62L54.81-34.62Q54.81-36.08 55.91-37.1 57.01-38.12 58.54-38.12L58.54-38.12Q60.08-38.12 61.17-37.1 62.26-36.08 62.26-34.62L62.26-34.62Q62.26-33.19 61.17-32.16 60.08-31.14 58.54-31.14ZM80.23 0.53L80.23 0.53Q76.15 0.53 73.23-1.26 70.31-3.05 68.73-6.22 67.16-9.39 67.16-13.53L67.16-13.53Q67.16-17.68 68.76-20.87 70.36-24.06 73.28-25.84 76.2-27.63 80.19-27.63L80.19-27.63Q83.52-27.63 86.08-26.41 88.65-25.2 90.17-22.98 91.7-20.77 91.91-17.83L91.91-17.83 85.77-17.83Q85.4-19.8 84-21.12 82.61-22.44 80.28-22.44L80.28-22.44Q78.31-22.44 76.82-21.39 75.33-20.33 74.5-18.36 73.68-16.39 73.68-13.64L73.68-13.64Q73.68-10.85 74.5-8.85 75.31-6.85 76.79-5.78 78.28-4.71 80.28-4.71L80.28-4.71Q81.7-4.71 82.83-5.25 83.96-5.79 84.72-6.82 85.49-7.85 85.77-9.32L85.77-9.32 91.91-9.32Q91.68-6.43 90.21-4.2 88.74-1.97 86.2-0.72 83.66 0.53 80.23 0.53ZM109.28 0.53L109.28 0.53Q105.17 0.53 102.2-1.18 99.23-2.89 97.63-6.05 96.03-9.2 96.03-13.48L96.03-13.48Q96.03-17.68 97.64-20.87 99.24-24.06 102.14-25.84 105.03-27.63 108.94-27.63L108.94-27.63Q111.46-27.63 113.71-26.82 115.95-26.01 117.68-24.33 119.41-22.64 120.41-20.04 121.4-17.44 121.4-13.85L121.4-13.85 121.4-11.88 99.05-11.88 99.05-16.21 115.24-16.21Q115.22-18.06 114.44-19.5 113.66-20.95 112.27-21.79 110.87-22.62 109.03-22.62L109.03-22.62Q107.06-22.62 105.57-21.67 104.07-20.72 103.25-19.19 102.42-17.65 102.4-15.82L102.4-15.82 102.4-12.04Q102.4-9.66 103.27-7.96 104.14-6.27 105.71-5.37 107.27-4.47 109.37-4.47L109.37-4.47Q110.77-4.47 111.9-4.87 113.04-5.27 113.87-6.05 114.71-6.84 115.14-7.99L115.14-7.99 121.14-7.32Q120.57-4.94 118.98-3.17 117.39-1.4 114.92-0.44 112.45 0.53 109.28 0.53ZM136.76-30.84L125.52-30.84 125.52-36.36 154.53-36.36 154.53-30.84 143.29-30.84 143.29 0 136.76 0 136.76-30.84ZM166.25 0L159.82 0 159.82-27.27 166.05-27.27 166.05-22.73 166.34-22.73Q167.08-25.09 168.9-26.38 170.72-27.66 173.07-27.66L173.07-27.66Q173.6-27.66 174.27-27.62 174.93-27.57 175.38-27.49L175.38-27.49 175.38-21.57Q174.97-21.72 174.09-21.83 173.21-21.95 172.39-21.95L172.39-21.95Q170.63-21.95 169.24-21.19 167.85-20.44 167.05-19.11 166.25-17.77 166.25-16.03L166.25-16.03 166.25 0ZM187.5 0.55L187.5 0.55Q184.91 0.55 182.84-0.38 180.77-1.31 179.57-3.14 178.37-4.97 178.37-7.65L178.37-7.65Q178.37-9.96 179.23-11.47 180.08-12.98 181.55-13.88 183.03-14.79 184.88-15.26 186.74-15.73 188.73-15.94L188.73-15.94Q191.12-16.19 192.61-16.4 194.11-16.6 194.79-17.04 195.47-17.47 195.47-18.39L195.47-18.39 195.47-18.5Q195.47-20.51 194.28-21.61 193.09-22.71 190.86-22.71L190.86-22.71Q188.49-22.71 187.12-21.68 185.74-20.65 185.26-19.25L185.26-19.25 179.26-20.1Q179.97-22.59 181.61-24.26 183.24-25.94 185.6-26.78 187.96-27.63 190.82-27.63L190.82-27.63Q192.79-27.63 194.74-27.17 196.7-26.7 198.31-25.65 199.93-24.59 200.91-22.78 201.9-20.97 201.9-18.25L201.9-18.25 201.9 0 195.72 0 195.72-3.75 195.51-3.75Q194.92-2.61 193.87-1.62 192.81-0.64 191.22-0.04 189.63 0.55 187.5 0.55ZM189.17-4.17L189.17-4.17Q191.1-4.17 192.53-4.94 193.95-5.72 194.72-7 195.49-8.27 195.49-9.78L195.49-9.78 195.49-13Q195.19-12.75 194.47-12.54 193.75-12.32 192.86-12.16 191.97-12 191.1-11.88 190.23-11.75 189.6-11.67L189.6-11.67Q188.16-11.47 187.02-11.03 185.88-10.58 185.23-9.79 184.57-9 184.57-7.76L184.57-7.76Q184.57-5.98 185.87-5.08 187.16-4.17 189.17-4.17ZM220.27 0.53L220.27 0.53Q216.19 0.53 213.27-1.26 210.35-3.05 208.78-6.22 207.21-9.39 207.21-13.53L207.21-13.53Q207.21-17.68 208.8-20.87 210.4-24.06 213.32-25.84 216.24-27.63 220.24-27.63L220.24-27.63Q223.56-27.63 226.13-26.41 228.69-25.2 230.22-22.98 231.74-20.77 231.96-17.83L231.96-17.83 225.81-17.83Q225.44-19.8 224.05-21.12 222.65-22.44 220.33-22.44L220.33-22.44Q218.36-22.44 216.87-21.39 215.37-20.33 214.55-18.36 213.72-16.39 213.72-13.64L213.72-13.64Q213.72-10.85 214.54-8.85 215.36-6.85 216.84-5.78 218.32-4.71 220.33-4.71L220.33-4.71Q221.75-4.71 222.88-5.25 224-5.79 224.77-6.82 225.53-7.85 225.81-9.32L225.81-9.32 231.96-9.32Q231.73-6.43 230.25-4.2 228.78-1.97 226.24-0.72 223.7 0.53 220.27 0.53ZM248.04-13.85L243.11-8.56 243.09-16.32 244.12-16.32 253.92-27.27 261.43-27.27 249.37-13.85 248.04-13.85ZM243.67 0L237.25 0 237.25-36.36 243.67-36.36 243.67 0ZM262.05 0L254.36 0 245.49-12.41 249.82-16.94 262.05 0ZM277.76 0.53L277.76 0.53Q273.66 0.53 270.69-1.18 267.71-2.89 266.11-6.05 264.52-9.2 264.52-13.48L264.52-13.48Q264.52-17.68 266.12-20.87 267.73-24.06 270.62-25.84 273.52-27.63 277.43-27.63L277.43-27.63Q279.95-27.63 282.19-26.82 284.44-26.01 286.17-24.33 287.9-22.64 288.9-20.04 289.89-17.44 289.89-13.85L289.89-13.85 289.89-11.88 267.54-11.88 267.54-16.21 283.73-16.21Q283.71-18.06 282.93-19.5 282.15-20.95 280.75-21.79 279.36-22.62 277.51-22.62L277.51-22.62Q275.54-22.62 274.05-21.67 272.56-20.72 271.73-19.19 270.91-17.65 270.89-15.82L270.89-15.82 270.89-12.04Q270.89-9.66 271.76-7.96 272.63-6.27 274.19-5.37 275.76-4.47 277.85-4.47L277.85-4.47Q279.25-4.47 280.39-4.87 281.53-5.27 282.36-6.05 283.2-6.84 283.62-7.99L283.62-7.99 289.62-7.32Q289.06-4.94 287.47-3.17 285.88-1.4 283.41-0.44 280.94 0.53 277.76 0.53ZM301.75 0L295.32 0 295.32-27.27 301.55-27.27 301.55-22.73 301.84-22.73Q302.58-25.09 304.4-26.38 306.22-27.66 308.57-27.66L308.57-27.66Q309.1-27.66 309.76-27.62 310.43-27.57 310.87-27.49L310.87-27.49 310.87-21.57Q310.47-21.72 309.59-21.83 308.71-21.95 307.89-21.95L307.89-21.95Q306.13-21.95 304.74-21.19 303.35-20.44 302.55-19.11 301.75-17.77 301.75-16.03L301.75-16.03 301.75 0Z" opacity="1" transform="matrix(1,0,0,1,0,0)" fill="#000000" class="wordmark-text-0" data-fill-palette-color="primary" id="text-0"></path></svg></g></svg></g></svg></g></svg></g><g transform="matrix(1,0,0,1,423.50807526338343,0)"><svg viewBox="0 0 62.216211666006096 68.78400843078344" height="68.78400843078344" width="62.216211666006096"><g><svg xmlns="http://www.w3.org/2000/svg" xmlns:xlink="http://www.w3.org/1999/xlink" xmlns:a="http://ns.adobe.com/AdobeSVGViewerExtensions/3.0/" version="1.1" x="0" y="0" viewBox="0.00027837144060710584 0 82.47644994475962 91.183" enable-background="new -8.762 -4.408 100 100" xml:space="preserve" height="68.78400843078344" width="62.216211666006096" class="icon-icon-0" data-fill-palette-color="accent" id="icon-0"><path d="M82.065 29.002L76.497 8.583l-0.023-0.077C74.935 3.418 70.372 0 65.12 0c-1.282 0-2.6 0.198-3.914 0.592l-0.117 0.035L38.536 9.484 38.52 9.492c-5.206 2.082-7.698 4.928-9.449 7.437l-0.044 0.063L1.962 60.465c-0.684 1.006-2.598 4.262-1.748 8.082 0.381 1.709 1.481 4.121 4.567 5.914l0.118 0.068 0.124 0.057c10.38 4.789 30.619 14.174 32.927 15.4 1.455 0.773 3.326 1.197 5.27 1.197 0.001 0 0.001 0 0.001 0 4.338 0 8.079-1.959 10.005-5.244l26.988-46.013C81.886 37.283 83.168 32.765 82.065 29.002zM75.286 36.844l-0.03 0.048L48.212 82.999c-1.027 1.75-3.252 2.375-4.991 2.375-0.98 0-1.931-0.195-2.542-0.52-2.955-1.57-30.617-14.344-33.084-15.482-0.966-0.586-1.524-1.27-1.706-2.086-0.266-1.193 0.258-2.656 0.895-3.572l0.041-0.061 27.055-43.458c1.518-2.161 3.265-3.892 6.79-5.304l22.311-8.763c0.736-0.211 1.456-0.316 2.141-0.316 3.068 0 5.109 2.175 5.779 4.342l5.566 20.406 0.018 0.063C77.012 32.401 76.291 35.275 75.286 36.844z" fill="#e43030" data-fill-palette-color="accent"></path><path d="M54.23 31.512l2.328-4.001-6.311-2.436-2.261 3.8c-5.545-1.114-10.932 0.751-14.117 5.6-3.693 5.624-0.261 10.661 2.75 13.508l-5.767 9.691c-1.672-1.246-3.598-2.865-4.382-4.256l-5.48 3.98c0.764 1.697 2.609 4.307 6.032 6.715l-3.159 5.309 6.423 3.244 3.087-5.307c6.764 2.236 13.568 0.586 16.846-5.588 3.088-5.814-1.385-11.873-4.736-15.224l5.708-9.813c1.845 1.451 3.458 3.5 4.104 4.898l5.484-3.267C60.12 37.047 57.501 33.77 54.23 31.512zM39.294 36.429c1.363-1.892 3.444-2.326 5.477-2.146l-4.506 7.573C38.941 40.233 38.041 38.166 39.294 36.429zM43.78 58.559c-1.246 2.203-4.079 2.533-6.549 2.17l4.816-8.277C43.605 54.274 44.822 56.715 43.78 58.559z" fill="#e43030" data-fill-palette-color="accent"></path><path d="M61.977 9.015c-2.346 0-4.712 0.931-6.665 2.622-1.822 1.578-3.057 3.642-3.477 5.81-0.451 2.332 0.074 4.509 1.479 6.131 1.313 1.516 3.244 2.35 5.44 2.35 0.001 0 0 0 0.001 0 2.345 0 4.711-0.931 6.663-2.621 1.822-1.579 3.058-3.643 3.478-5.811 0.451-2.331-0.074-4.509-1.479-6.131C66.104 9.849 64.172 9.015 61.977 9.015zM65.309 16.801c-0.265 1.368-1.075 2.697-2.282 3.742-1.27 1.101-2.826 1.73-4.272 1.73-0.868 0-1.632-0.234-2.216-0.665-0.079-2.12 0.974-4.485 2.995-6.236 1.391-1.204 3.003-1.911 4.555-2.112 0.211 0.142 0.402 0.307 0.567 0.497C65.31 14.513 65.542 15.594 65.309 16.801z" fill="#e43030" data-fill-palette-color="accent"></path></svg></g></svg></g></svg></g><defs></defs></svg><rect width="395.52" height="56.01006938839433" fill="none" stroke="none" visibility="hidden"></rect></g></svg></g></svg>